<?xml version="1.0" encoding="UTF-8" standalone="no"?>
<svg
   height="16"
   width="16"
   version="1.1"
   id="Capa_1"
   viewBox="0 0 26 26"
   xml:space="preserve"
   sodipodi:docname="newtab.svg"
   inkscape:version="1.1.1 (c3084ef, 2021-09-22)"
   xmlns:inkscape="http://www.inkscape.org/namespaces/inkscape"
   xmlns:sodipodi="http://sodipodi.sourceforge.net/DTD/sodipodi-0.dtd"
   xmlns="http://www.w3.org/2000/svg"
   xmlns:svg="http://www.w3.org/2000/svg"><defs
   id="defs3448" /><sodipodi:namedview
   id="namedview3446"
   pagecolor="#ffffff"
   bordercolor="#666666"
   borderopacity="1.0"
   inkscape:pageshadow="2"
   inkscape:pageopacity="0.0"
   inkscape:pagecheckerboard="0"
   showgrid="false"
   inkscape:zoom="36.375"
   inkscape:cx="8"
   inkscape:cy="8"
   inkscape:window-width="1296"
   inkscape:window-height="804"
   inkscape:window-x="1815"
   inkscape:window-y="312"
   inkscape:window-maximized="0"
   inkscape:current-layer="Capa_1" />
<g
   id="g3443">
	<path
   style="fill:#347bcd"
   d="m 18,17.759 v 3.366 C 18,22.159 17.159,23 16.125,23 H 4.875 C 3.841,23 3,22.159 3,21.125 V 9.875 C 3,8.841 3.841,8 4.875,8 H 8.304 L 11.305,5 H 4.875 C 2.182,5 0,7.182 0,9.875 v 11.25 C 0,23.818 2.182,26 4.875,26 h 11.25 C 18.818,26 21,23.818 21,21.125 v -6.367 z"
   id="path3437" />
	<g
   id="g3441">
		<path
   style="fill:#347bcd"
   d="M 22.581,0 H 12.322 c -1.886,0.002 -1.755,0.51 -0.76,1.504 l 4.917594,5.0962887 -5.609347,5.5189993 c -1.1449995,1.144 -1.8141027,2.283224 -0.670103,3.426224 l 0.8911,0.758079 c 1.144,1.141 2.415244,-0.108861 3.559244,-1.251859 L 19.947121,9.8444471 24.492,14.434 c 1.101,1.1 1.507,1.129 1.507,-0.757 L 26,3.419 C 25.999,-0.018 26.024,-0.001 22.581,0 Z"
   id="path3439"
   sodipodi:nodetypes="ccccccccccccc" />
	</g>
</g>
</svg>
