<?xml version="1.0" encoding="UTF-8" standalone="no"?>
<svg
   width="507.53284"
   height="511.99783"
   viewBox="0 0 134.28471 135.46608"
   version="1.1"
   id="svg1"
   xml:space="preserve"
   xmlns="http://www.w3.org/2000/svg"
   xmlns:svg="http://www.w3.org/2000/svg"><defs
     id="defs1" /><g
     id="layer1"
     transform="translate(-2515.1286,-1100.402)"><path
       style="display:inline;opacity:1;fill:#888888;fill-opacity:1;stroke-width:0.264583"
       d="m 2544.7387,1119.6397 c 6.4693,-21.2873 51.8646,-25.172 69.4532,-10.3353 4.6843,3.9515 8.6105,8.8792 11.5444,13.4821 3.7423,5.8711 6.0995,11.397 8.8338,15.676 1.2598,1.9716 -3.3662,5.7041 0.3905,9.3999 l 13.5444,13.3252 c 3.8953,3.8322 -5.9584,6.992 -6.6146,7.6481 -2.4771,2.4771 3.8688,5.7282 4.9469,8.7115 0.761,2.1057 -0.1281,1.6208 -0.8128,1.8305 -1.0111,0.3096 -3.7423,1.7066 -4.1789,2.5797 -0.7221,1.4442 -0.5376,3.6592 0.045,4.2416 1.8702,1.8702 -2.9711,4.8837 -0.4135,7.4414 5.5729,5.5728 -2.5593,23.9291 -7.4438,27.3659 -4.8641,3.4225 -23.1609,-2.4522 -24.7453,-4.0367 -1.5155,-1.5155 -0.5691,5.453 -3.7141,8.3661 -2.3008,2.1312 -3.6271,5.2489 -6.7938,8.709 -7.5711,8.2723 -49.5388,-13.6783 -47.4267,-24.2813 0.105,-0.5273 2.4599,-5.3537 2.8939,-5.7877 1.0453,-1.0453 0.9686,-4.8844 0.1451,-5.708 -1.0801,-1.0801 -1.5462,-4.8966 -2.0664,-5.5398 -20.2272,-25.0115 -11.3835,-27.9316 -13.5952,-32.6707 -0.926,-1.9843 -4.2835,1.978 -6.4078,1.4469 -2.1856,-0.5464 -1.0416,-5.8976 -3.2944,-5.8976 -6.1392,0 8.8166,18.7385 -2.6872,7.2347 -5.4459,-5.4459 2.4005,-12.9756 0.2067,-17.3632 -1.6629,-3.3258 -5.3132,-3.5985 -6.8213,-6.6146 -1.3551,-2.7102 -0.037,-6.6514 -2.067,-8.6817 -1.245,-1.245 -3.6728,-3.669 -1.9121,-3.669 6.8653,0 0,-2.6974 0.7752,-4.2375 2.7961,-5.5923 6.8878,-2.8237 10.7487,-4.7542 0.4682,-0.2341 -1.0439,-3.3176 -1.2403,-3.514 -2.605,-2.605 2.535,-7.0824 3.3074,-7.8548 2.1102,-2.1103 -0.6072,3.6129 -0.2068,6.4079 0.2233,1.5583 5.9151,-1.8604 4.3409,-1.8604 -1.1515,0 9.0446,6.5642 9.3017,6.8213 2.2574,2.2574 -1.9032,2.6021 1.9637,2.1187 z"
       id="path4-9-5-9" /></g></svg>
